# xmcd CD database file
#
# Track frame offsets:
#	150
#	21727
#	37927
#	62535
#	84480
#
# Disc length: 1347 seconds
#
# Revision: 0
# Processed by: cddbd v1.5PL3 Copyright (c) Steve Scherf et al.
# Submitted via: CDex 1.50beta9
#
DISCID=37054105
DTITLE=carve - orbit
DYEAR=2001
DGENRE=JPop
TTITLE0=FLY
TTITLE1=ESCAPE
TTITLE2=tremolo
TTITLE3=REC offset
TTITLE4=(no title)
EXTD=YEAR: 2001
EXTT0=
EXTT1=
EXTT2=
EXTT3=
EXTT4=
PLAYORDER=
